# xmcd CD database file
#
# Track frame offsets:
#	150
#	2187
#	27430
#	42507
#	63002
#	87877
#	109437
#	138247
#	158140
#	171900
#	200760
#	213510
#	226335
#	258562
#	281172
#	297337
#	311212
#	341812
#
# Disc length: 4791 seconds
#
# Revision: 0
# Processed by: cddbd v1.5.1PL0 Copyright (c) Steve Scherf et al.
# Submitted via: CDex 1.51
#
DISCID=1912b512
DTITLE=Kitaro - Millenia - Oasis
DYEAR=1900
DGENRE=New Age
TTITLE0=Prologue
TTITLE1=Space Queen
TTITLE2=Seiun
TTITLE3=Hikari No Sono
TTITLE4=Maboroshi
TTITLE5=Osmic Love
TTITLE6=Jiyu Eno Kakehashi
TTITLE7=Puromesyume
TTITLE8=Epilogue
TTITLE9=Morning Prayer
TTITLE10=Moro-Rism
TTITLE11=New Wave
TTITLE12=Cosmic Energy
TTITLE13=Eternal Spring
TTITLE14=Moonlight
TTITLE15=Shimmering Horizon
TTITLE16=Fragrance OfNature
TTITLE17=Innocent People
EXTD=
EXTT0=
EXTT1=
EXTT2=
EXTT3=
EXTT4=
EXTT5=
EXTT6=
EXTT7=
EXTT8=
EXTT9=
EXTT10=
EXTT11=
EXTT12=
EXTT13=
EXTT14=
EXTT15=
EXTT16=
EXTT17=
PLAYORDER=
